<?xml version="1.0" encoding="UTF-8"?>
<svg xmlns="http://www.w3.org/2000/svg" viewBox="0 0 1200 400" preserveAspectRatio="xMidYMid meet">
  <defs>
    <linearGradient id="bg" x1="0" y1="0" x2="1" y2="1">
      <stop offset="0%" stop-color="#f7f3ee" />
      <stop offset="100%" stop-color="#e9d8c7" />
    </linearGradient>
    <filter id="shadow" x="-20%" y="-20%" width="140%" height="140%">
      <feDropShadow dx="0" dy="12" stdDeviation="18" flood-color="#000" flood-opacity="0.12" />
    </filter>
  </defs>

  <rect width="1200" height="400" fill="url(#bg)" />
  <circle cx="330" cy="160" r="110" fill="#111111" fill-opacity="0.85" filter="url(#shadow)" />
  <path d="M340 58l-15 130c0 15 12 27 27 27h4c15 0 27-12 27-27L390 58" fill="none" stroke="#111" stroke-width="18" stroke-linecap="round" />
  <path d="M320 68l-40 90" fill="none" stroke="#111" stroke-width="18" stroke-linecap="round" />
  <path d="M440 104l53-74" fill="none" stroke="#111" stroke-width="18" stroke-linecap="round" />

  <g transform="translate(840 160)">
    <path d="M0 0c0-60 50-110 110-110s110 50 110 110-50 110-110 110-110-50-110-110Z" fill="none" stroke="#111" stroke-width="22" opacity="0.9" />
    <path d="M80 -100L58 -55" fill="none" stroke="#111" stroke-width="18" stroke-linecap="round" opacity="0.9" />
    <path d="M80 100L58 55" fill="none" stroke="#111" stroke-width="18" stroke-linecap="round" opacity="0.9" />
  </g>

  <text x="600" y="240" fill="#111" font-family="Georgia, 'Times New Roman', serif" font-size="86" font-weight="700" text-anchor="middle" letter-spacing="8">OUR MENU</text>
  <path d="M280 230c40 24 66 30 100 24" fill="none" stroke="#111" stroke-width="12" opacity="0.75" />
  <path d="M840 81c-30 22-66 32-101 26" fill="none" stroke="#111" stroke-width="12" opacity="0.75" />

</svg>
